<?xml version="1.0" encoding="UTF-8"?>
<svg xmlns="http://www.w3.org/2000/svg" xmlns:xlink="http://www.w3.org/1999/xlink" width="250px" height="250px" viewBox="0 0 250 250" version="1.1">
<g id="surface1">
<path style="fill:none;stroke-width:2;stroke-linecap:butt;stroke-linejoin:miter;stroke:rgb(65.490198%,61.960787%,56.470591%);stroke-opacity:1;stroke-miterlimit:4;" d="M 542.912 405.696 C 542.816 406.032 542.432 406.224 541.792 406.256 " transform="matrix(0.244141,0,0,0.244141,0,0)"/>
<path style="fill:none;stroke-width:2;stroke-linecap:butt;stroke-linejoin:miter;stroke:rgb(49.019608%,47.058824%,43.529412%);stroke-opacity:1;stroke-miterlimit:4;" d="M 541.792 406.256 C 540.064 386.544 537.824 366.96 535.072 347.472 C 534.624 344.176 533.952 337.52 533.056 327.52 C 532.224 318.192 531.152 311.744 529.856 308.192 C 523.856 291.872 508.384 278.544 490.496 278.544 C 427.072 278.576 370.24 278.56 320 278.496 C 308.768 278.496 301.296 278.976 297.632 279.968 C 285.584 283.216 274.96 291.04 269.12 302.208 C 266.496 307.216 264.944 311.808 264.464 315.984 C 256.816 381.824 252.272 420.912 250.848 433.264 C 247.44 462.832 244.368 488.624 241.632 510.624 C 240.88 516.704 240.64 521.952 240.896 526.368 C 242.016 545.296 257.072 560.08 274.784 564.816 C 278.592 565.84 284.48 566.336 292.4 566.288 C 321.392 566.16 356.912 566.16 398.976 566.304 C 453.664 566.48 506.08 591.776 536.384 637.088 C 537.776 639.184 539.344 642.368 540.704 643.344 C 549.28 649.424 556.56 640.064 561.792 634.048 C 563.776 631.76 565.968 629.456 568.384 627.152 C 596.752 600.032 633.632 586.128 671.792 579.824 C 701.52 574.912 730.88 572.848 759.872 573.632 C 782.352 574.256 803.104 576.88 822.144 581.504 C 825.104 582.224 827.2 582.384 828.448 581.984 C 833.104 580.496 834.816 576.784 834.8 572.016 C 834.768 564.512 834.768 478.816 834.8 314.976 C 834.8 310.576 834.624 307.952 834.288 307.12 C 831.184 299.616 825.104 300.928 817.184 302.656 C 809.184 304.416 798.544 306.704 785.296 309.52 C 785.2 309.536 785.104 309.52 785.024 309.456 C 784.944 309.392 784.896 309.296 784.896 309.184 C 785.008 286.816 785.008 269.2 784.928 256.336 C 784.896 254.08 783.872 252.032 781.824 250.208 C 778.896 247.616 774.896 248.096 771.12 249.136 C 737.696 258.304 704.864 268.304 672.592 279.104 C 648.144 287.28 623.888 297.568 603.344 313.408 C 573.856 336.144 551.664 368.8 542.912 405.696 " transform="matrix(0.244141,0,0,0.244141,0,0)"/>
<path style="fill:none;stroke-width:2;stroke-linecap:butt;stroke-linejoin:miter;stroke:rgb(18.431373%,16.470589%,13.333334%);stroke-opacity:1;stroke-miterlimit:4;" d="M 541.792 406.256 C 540.016 394.304 538.432 382.352 537.072 370.416 C 536.112 362.112 535.248 354.8 534.448 348.496 C 533.568 341.408 532.256 331.248 531.52 320.976 C 530.496 306.832 524.384 295.568 513.152 287.2 C 508.992 284.096 504.4 281.888 499.344 280.576 C 496.336 279.792 491.232 279.408 484.064 279.424 C 393.904 279.488 336.032 279.472 310.496 279.392 C 304.512 279.376 299.344 280.144 295.008 281.664 C 276.832 288.112 266.72 301.152 264.672 320.8 C 263.152 335.568 261.312 351.44 259.184 368.416 C 258.704 372.224 258.336 375.504 258.08 378.256 C 257.76 381.6 257.36 384.88 256.896 388.08 C 256.512 390.8 254.624 406.784 251.248 436.016 C 245.696 484.096 242.88 508.416 242.768 509.008 C 242.272 511.696 241.92 515.856 241.728 521.504 C 241.344 532.224 244.496 541.456 251.2 549.232 C 257.568 556.624 265.312 561.536 274.4 563.936 C 278.16 564.912 284.944 565.408 294.768 565.408 C 349.648 565.376 380.528 565.344 387.44 565.296 C 402.384 565.2 413.568 565.696 420.992 566.816 C 440.784 569.76 458.24 574.88 473.36 582.192 C 494.208 592.256 512.064 605.968 526.944 623.296 C 531.776 628.896 536.24 635.04 540.336 641.696 C 540.544 642.032 540.816 642.336 541.136 642.576 C 548.816 648.384 556.256 639.392 560.704 634.208 C 562.128 632.528 563.904 630.624 566.032 628.512 C 585.6 608.912 610.752 595.232 637.312 587.088 C 647.744 583.888 657.936 581.424 667.872 579.664 C 696.176 574.72 724.8 572.304 753.744 572.432 C 755.952 572.432 759.616 572.608 764.736 572.944 C 769.216 573.248 772.88 573.488 775.744 573.696 C 793.12 574.896 809.568 577.44 825.072 581.296 C 825.392 581.376 825.728 581.408 826.064 581.408 C 828.832 581.376 831.04 580.288 832.656 578.16 C 833.424 577.168 833.792 574.608 833.792 570.464 C 833.696 520.832 833.664 453.84 833.728 369.504 C 833.728 354.576 833.84 335.824 834.016 313.248 C 834.048 310.096 833.872 308.096 833.504 307.216 C 831.312 301.936 827.104 301.536 821.616 302.624 C 812.48 304.448 802.992 306.496 793.152 308.768 C 790.464 309.376 787.968 309.664 785.392 310.144 C 785.088 310.208 784.784 310.128 784.544 309.936 C 784.304 309.728 784.176 309.44 784.176 309.136 L 784.176 255.344 C 780.864 245.664 771.664 249.904 764.336 251.84 C 760.576 252.816 746.352 256.992 721.632 264.352 C 699.584 270.912 678.96 277.648 659.808 284.544 C 644.064 290.224 630.08 296.816 617.84 304.352 C 598.512 316.272 582.208 331.648 568.928 350.464 C 557.088 367.264 548.752 385.424 543.92 404.944 C 543.728 405.744 543.392 405.984 542.912 405.696 " transform="matrix(0.244141,0,0,0.244141,0,0)"/>
<path style="fill:none;stroke-width:2;stroke-linecap:butt;stroke-linejoin:miter;stroke:rgb(49.019608%,47.058824%,43.529412%);stroke-opacity:1;stroke-miterlimit:4;" d="M 740.752 635.568 C 739.36 636.32 738.496 636.864 738.192 637.2 C 721.216 655.616 700.864 671.808 678.432 682.416 C 656.544 692.752 633.312 697.456 608.736 696.512 C 592.352 695.872 577.152 693.472 563.152 689.296 C 547.04 684.496 530.496 677.968 513.536 669.728 C 500.56 663.408 484.176 655.376 464.384 645.632 C 440.752 634 417.808 624.272 395.552 616.448 C 368.496 606.944 340.912 600.688 311.936 599.824 C 277.648 598.832 243.984 605.664 214.688 623.648 C 212.304 625.104 210.848 626.416 210.288 627.584 C 207.168 634.224 211.696 641.104 218.736 640.896 C 220.464 640.848 223.136 639.664 226.784 637.376 C 236.848 631.04 248.416 626.304 261.472 623.168 C 291.44 615.952 323.456 617.008 353.184 623.824 C 390.816 632.464 427.552 648.544 463.12 666.112 C 491.776 680.288 523.984 697.088 556.288 706.816 C 592.72 717.776 633.328 718.672 669.088 706.352 C 700.944 695.392 727.408 675.536 750.592 651.328 C 752.704 649.136 753.84 646.832 754.032 644.416 C 754.544 637.504 747.232 632.112 740.752 635.568 " transform="matrix(0.244141,0,0,0.244141,0,0)"/>
<path style="fill:none;stroke-width:2;stroke-linecap:butt;stroke-linejoin:miter;stroke:rgb(49.019608%,47.058824%,43.529412%);stroke-opacity:1;stroke-miterlimit:4;" d="M 209.424 690.864 C 208.064 697.664 212.608 702.576 219.264 702.464 C 220.544 702.448 222.912 701.312 226.368 699.04 C 236.032 692.688 247.216 687.632 259.936 683.872 C 285.072 676.416 310.608 674.96 336.544 679.52 C 357.344 683.168 377.664 689.744 397.52 699.248 C 423.056 711.472 440.864 722.208 469.872 739.344 C 494.816 754.08 521.408 766.208 550.352 771.088 C 576.176 775.44 601.024 772.784 624.896 763.152 C 627.536 762.08 629.168 759.968 629.808 756.8 C 631.024 750.832 627.12 746.304 621.232 745.696 C 620.016 745.584 617.856 746.112 614.768 747.296 C 585.392 758.528 551.952 756.192 522.752 744.64 C 509.264 739.296 496.32 733.024 483.92 725.824 C 462.432 713.312 440.8 699.888 415.968 687.264 C 387.392 672.752 356.224 662.368 325.008 659.264 C 288.64 655.648 254.336 662.656 222.096 680.32 C 217.504 682.832 210.288 686.592 209.424 690.864 " transform="matrix(0.244141,0,0,0.244141,0,0)"/>
<path style="fill:none;stroke-width:2;stroke-linecap:butt;stroke-linejoin:miter;stroke:rgb(65.490198%,61.960787%,56.470591%);stroke-opacity:1;stroke-miterlimit:4;" d="M 555.728 596.464 C 556.64 596.448 557.28 596 557.632 595.152 " transform="matrix(0.244141,0,0,0.244141,0,0)"/>
<path style="fill:none;stroke-width:2;stroke-linecap:butt;stroke-linejoin:miter;stroke:rgb(18.431373%,16.470589%,13.333334%);stroke-opacity:1;stroke-miterlimit:4;" d="M 557.632 595.152 C 557.68 595.264 557.744 595.36 557.792 595.424 C 572.256 573.456 590.576 556.016 613.072 543.072 C 623.968 536.8 635.296 531.568 647.072 527.344 C 658.128 523.408 666.496 520.608 672.208 518.944 C 702.336 510.224 732.976 502.8 764.144 496.672 C 766.416 496.24 767.488 494.864 767.376 492.528 C 767.168 488.368 767.84 481.152 767.488 474.256 C 767.392 472.288 767.36 463.216 767.376 447.008 C 767.376 443.504 767.84 440.624 767.392 437.024 C 767.28 436.144 767.344 435.232 767.6 434.272 C 767.648 434.064 767.68 433.856 767.68 433.648 C 767.392 416.256 767.328 404.608 767.456 398.688 C 767.744 385.584 767.744 373.616 767.472 362.816 C 767.328 357.2 767.296 342.432 767.376 318.544 C 767.392 311.568 767.344 295.52 767.216 270.432 C 767.216 270.064 767.056 269.792 766.736 269.632 C 766.4 269.456 766.272 269.52 766.336 269.776 " transform="matrix(0.244141,0,0,0.244141,0,0)"/>
<path style="fill:none;stroke-width:2;stroke-linecap:butt;stroke-linejoin:miter;stroke:rgb(65.490198%,61.960787%,56.470591%);stroke-opacity:1;stroke-miterlimit:4;" d="M 766.336 269.776 C 766.224 269.776 766.112 269.776 766.016 269.776 " transform="matrix(0.244141,0,0,0.244141,0,0)"/>
<path style="fill:none;stroke-width:2;stroke-linecap:butt;stroke-linejoin:miter;stroke:rgb(18.431373%,16.470589%,13.333334%);stroke-opacity:1;stroke-miterlimit:4;" d="M 766.016 269.776 C 766.032 269.28 765.696 269.12 764.976 269.312 C 734.88 277.552 704.096 287.104 672.64 297.952 C 644.752 307.584 618.272 321.376 597.616 342.848 C 575.04 366.32 560.032 397.216 556.656 429.76 C 556.144 434.672 555.568 440.496 555.552 446.432 C 555.392 498.912 555.376 546.896 555.504 590.368 C 555.504 590.432 555.456 591.36 555.376 593.12 C 555.312 594.368 555.424 595.488 555.728 596.464 " transform="matrix(0.244141,0,0,0.244141,0,0)"/>
<path style="fill:none;stroke-width:2;stroke-linecap:butt;stroke-linejoin:miter;stroke:rgb(49.019608%,47.058824%,43.529412%);stroke-opacity:1;stroke-miterlimit:4;" d="M 766.016 269.776 C 735.728 278.368 705.68 287.68 675.856 297.696 C 664.816 301.408 654.064 305.776 643.584 310.784 C 615.536 324.256 593.648 343.84 577.936 369.552 C 570.816 381.216 565.52 393.344 562.048 405.952 C 558.32 419.424 556.464 432.528 556.432 445.248 C 556.336 522.464 556.304 570.88 556.336 590.496 C 556.336 592.72 556.144 594.704 555.728 596.464 " transform="matrix(0.244141,0,0,0.244141,0,0)"/>
<path style="fill:none;stroke-width:2;stroke-linecap:butt;stroke-linejoin:miter;stroke:rgb(49.019608%,47.058824%,43.529412%);stroke-opacity:1;stroke-miterlimit:4;" d="M 557.632 595.152 C 572.192 570.752 595.376 550.976 620.544 538.048 C 637.344 529.424 656.096 522.704 674.048 517.568 C 705.28 508.624 734.16 501.952 765.296 495.472 C 765.904 495.36 766.352 494.816 766.352 494.192 L 766.336 269.776 " transform="matrix(0.244141,0,0,0.244141,0,0)"/>
<path style="fill:none;stroke-width:2;stroke-linecap:butt;stroke-linejoin:miter;stroke:rgb(18.431373%,16.470589%,13.333334%);stroke-opacity:1;stroke-miterlimit:4;" d="M 408.944 445.744 C 431.44 445.648 453.488 445.584 475.072 445.536 C 485.76 445.52 492.352 445.264 494.88 444.736 C 501.312 443.392 507.2 440.496 512.512 436.032 C 519.936 429.824 523.872 421.968 524.352 412.48 C 524.528 409.2 523.824 404.32 523.504 401.584 C 522.864 396.192 519.952 370.08 514.768 323.232 C 514.224 318.352 513.504 314.848 512.608 312.704 C 509.232 304.752 503.568 299.52 495.616 297.024 C 492.704 296.128 487.52 295.904 485.056 295.904 C 441.792 296 385.744 295.984 316.928 295.888 C 311.92 295.888 307.776 296.208 304.528 296.848 C 294.512 298.864 287.648 304.368 283.904 313.392 C 282.576 316.608 281.904 322.464 281.6 325.104 C 278.128 355.104 275.184 379.808 272.784 399.248 C 271.744 407.76 271.216 416.064 274.672 423.632 C 279.568 434.368 287.36 441.376 298.064 444.672 C 302.144 445.936 309.168 446.528 319.104 446.464 C 354.688 446.256 370.064 445.936 408.944 445.744 " transform="matrix(0.244141,0,0,0.244141,0,0)"/>
<path style="fill:none;stroke-width:2;stroke-linecap:butt;stroke-linejoin:miter;stroke:rgb(65.490198%,61.960787%,56.470591%);stroke-opacity:1;stroke-miterlimit:4;" d="M 582.896 591.696 C 582.976 591.952 583.184 592.128 583.504 592.224 " transform="matrix(0.244141,0,0,0.244141,0,0)"/>
<path style="fill:none;stroke-width:2;stroke-linecap:butt;stroke-linejoin:miter;stroke:rgb(18.431373%,16.470589%,13.333334%);stroke-opacity:1;stroke-miterlimit:4;" d="M 583.504 592.224 C 583.536 592.736 584.016 592.72 584.944 592.144 C 603.28 581.04 622.992 572.944 644.08 567.856 C 668.768 561.904 696.464 558.224 727.136 556.816 C 731.872 556.608 742.336 556.544 758.496 556.624 C 766.032 556.656 773.232 557.232 781.504 557.76 C 788.032 558.176 798.448 559.776 812.752 562.544 C 813.84 562.768 814.88 562.688 815.872 562.304 C 816.192 562.192 816.416 561.92 816.464 561.6 C 816.88 559.36 817.088 558 817.088 557.568 C 817.152 540.24 817.168 462.8 817.152 325.248 C 817.152 322.096 816.592 320.832 813.216 321.648 C 803.296 324.064 794.272 326.048 786.112 327.584 C 785.04 327.792 784.272 328.72 784.256 329.824 C 784.096 371.232 784.064 428.704 784.192 502.256 C 784.192 507.152 781.92 510.064 777.344 510.96 C 761.536 514.064 742.56 518.256 720.416 523.536 C 701.184 528.128 683.008 533.248 665.888 538.896 C 644.896 545.824 626.064 553.936 608.208 566.464 C 604.496 569.056 601.136 571.728 598.112 574.448 C 592.64 579.376 589.52 582.336 588.752 583.312 C 586.336 586.416 584.224 589.008 582.432 591.104 C 582.32 591.232 582.272 591.392 582.304 591.552 C 582.336 591.712 582.432 591.856 582.576 591.936 C 582.608 591.968 582.704 591.872 582.896 591.696 " transform="matrix(0.244141,0,0,0.244141,0,0)"/>
<path style="fill:none;stroke-width:2;stroke-linecap:butt;stroke-linejoin:miter;stroke:rgb(49.019608%,47.058824%,43.529412%);stroke-opacity:1;stroke-miterlimit:4;" d="M 583.504 592.224 C 602.96 580.176 623.312 571.696 644.56 566.816 C 681.408 558.336 720.64 554.64 762.272 555.744 C 779.136 556.176 795.76 558.16 812.112 561.68 C 813.008 561.872 814.064 561.952 815.264 561.904 C 815.744 561.888 816.128 561.488 816.128 560.992 L 816.128 322.752 C 816.128 322.56 816.048 322.384 815.888 322.256 C 815.744 322.128 815.536 322.08 815.344 322.128 L 785.712 328.56 C 785.296 328.64 784.992 329.024 784.992 329.456 C 784.944 423.584 784.96 480.448 785.056 500 C 785.072 505.984 783.712 510.416 777.632 511.648 C 735.968 520.176 694.56 529.632 657.024 542.768 C 629.024 552.56 601.232 567.68 582.896 591.696 " transform="matrix(0.244141,0,0,0.244141,0,0)"/>
<path style="fill:none;stroke-width:2;stroke-linecap:butt;stroke-linejoin:miter;stroke:rgb(65.490198%,61.960787%,56.470591%);stroke-opacity:1;stroke-miterlimit:4;" d="M 269.248 443.536 C 268.784 443.072 268.448 443.088 268.224 443.552 " transform="matrix(0.244141,0,0,0.244141,0,0)"/>
<path style="fill:none;stroke-width:2;stroke-linecap:butt;stroke-linejoin:miter;stroke:rgb(18.431373%,16.470589%,13.333334%);stroke-opacity:1;stroke-miterlimit:4;" d="M 268.224 443.552 C 267.856 443.248 267.664 443.184 267.648 443.376 C 265.008 467.296 262.24 490.912 259.328 514.256 C 258.192 523.248 257.92 530.96 263.504 538.528 C 269.744 546.976 280.32 548.624 290.496 548.672 C 324.32 548.784 354.992 548.752 382.512 548.624 C 402.272 548.512 416.176 548.992 424.208 550.048 C 445.92 552.88 466.352 559.312 485.488 569.328 C 503.456 578.736 519.488 590.688 533.6 605.168 C 534.784 606.384 535.68 607.504 536.304 608.528 C 536.608 609.008 537.184 609.232 537.712 609.056 C 538.256 608.88 538.592 608.352 538.544 607.808 C 538.4 605.872 538.368 604.096 538.464 602.464 C 539.008 592.224 538.496 580.352 538.896 568.768 C 539.152 561.648 538.544 554.592 537.088 547.648 C 533.648 531.264 523.904 519.152 512.912 505.92 C 510.096 502.544 507.248 499.392 504.384 496.464 C 499.744 491.776 496.656 488.752 495.088 487.424 C 477.536 472.464 457.184 463.936 433.984 461.872 C 426.816 461.232 417.488 460.96 406 461.056 C 360.128 461.424 327.968 461.744 309.536 461.984 C 293.376 462.192 280.08 455.936 269.664 443.216 C 269.248 443.344 269.248 443.44 269.248 443.536 " transform="matrix(0.244141,0,0,0.244141,0,0)"/>
<path style="fill:none;stroke-width:2;stroke-linecap:butt;stroke-linejoin:miter;stroke:rgb(49.019608%,47.058824%,43.529412%);stroke-opacity:1;stroke-miterlimit:4;" d="M 268.224 443.552 C 268.032 446.768 267.744 449.984 267.376 453.216 C 263.216 489.104 260.848 509.2 260.24 513.504 C 258.832 523.696 258.576 532.704 266.112 540.192 C 273.104 547.152 281.712 547.648 291.504 547.776 C 296.704 547.84 327.216 547.824 383.008 547.712 C 402.528 547.664 416.496 548.208 424.928 549.344 C 467.072 554.992 506.048 574.944 534.944 605.792 C 535.712 606.624 536.448 607.52 537.152 608.48 C 537.248 608.592 537.392 608.64 537.52 608.592 C 537.648 608.56 537.728 608.432 537.728 608.304 C 537.84 587.824 537.84 572.32 537.744 561.76 C 537.568 543.744 531.488 530.48 520.144 516.144 C 514.944 509.552 511.136 504.864 508.704 502.048 C 487.856 477.792 459.776 463.168 427.488 462.256 C 420.048 462.032 415.28 461.92 413.184 461.936 C 396.048 461.952 366.544 462.208 324.672 462.72 C 311.184 462.88 302.768 462.64 299.392 461.984 C 287.776 459.744 276.208 453.392 269.248 443.536 " transform="matrix(0.244141,0,0,0.244141,0,0)"/>
<path style="fill:none;stroke-width:2;stroke-linecap:butt;stroke-linejoin:miter;stroke:rgb(49.019608%,47.058824%,43.529412%);stroke-opacity:1;stroke-miterlimit:4;" d="M 512.096 313.696 C 509.04 304.688 500.976 297.888 491.28 297.184 C 487.712 296.944 484.624 296.816 482 296.816 C 435.92 296.88 381.248 296.88 318 296.816 C 311.072 296.8 306.256 297.136 303.536 297.808 C 291.248 300.88 284.352 308.832 282.848 321.648 C 277.696 365.68 274.784 390.176 274.144 395.104 C 272.832 405.296 272.512 412.24 273.184 415.92 C 275.648 429.344 285.008 439.936 298.096 443.824 C 302.288 445.072 306.912 445.664 312 445.584 C 340.784 445.232 398.608 444.896 485.504 444.576 C 499.056 444.528 511.264 439.472 518.656 427.984 C 522.8 421.552 524.4 414.384 523.456 406.48 C 518.064 360.544 515.024 334.304 513.776 322.464 C 513.376 318.768 512.816 315.84 512.096 313.696 " transform="matrix(0.244141,0,0,0.244141,0,0)"/>
<path style="fill:none;stroke-width:2;stroke-linecap:butt;stroke-linejoin:miter;stroke:rgb(49.019608%,47.058824%,43.529412%);stroke-opacity:1;stroke-miterlimit:4;" d="M 366.928 361.44 C 362.864 378.496 373.568 395.68 390.864 399.792 C 408.144 403.92 425.44 393.408 429.52 376.352 C 433.584 359.28 422.864 342.096 405.584 337.984 C 388.304 333.872 370.992 344.368 366.928 361.44 " transform="matrix(0.244141,0,0,0.244141,0,0)"/>
<path style="fill:none;stroke-width:2;stroke-linecap:butt;stroke-linejoin:miter;stroke:rgb(18.431373%,16.470589%,13.333334%);stroke-opacity:1;stroke-miterlimit:4;" d="M 368.016 360.72 C 363.536 377.2 373.456 394.256 390.176 398.8 C 406.896 403.344 424.08 393.648 428.56 377.168 C 433.04 360.672 423.12 343.632 406.4 339.088 C 389.68 334.544 372.496 344.224 368.016 360.72 " transform="matrix(0.244141,0,0,0.244141,0,0)"/>
<path style="fill:none;stroke-width:2;stroke-linecap:butt;stroke-linejoin:miter;stroke:rgb(18.431373%,16.470589%,13.333334%);stroke-opacity:1;stroke-miterlimit:4;" d="M 739.584 637.856 C 737.904 639.6 736.48 640.832 735.328 641.584 C 735.104 641.728 734.896 641.888 734.704 642.08 C 720.272 656.784 703.824 670.128 685.824 679.584 C 679.488 682.928 674.832 685.184 671.872 686.352 C 647.952 695.92 623.104 699.36 597.312 696.64 C 577.264 694.528 557.568 689.504 538.24 681.536 C 528.48 677.504 519.824 673.664 512.256 669.984 C 498.896 663.488 482.704 655.536 463.664 646.112 C 438.72 633.776 411.024 622.224 382.672 613.056 C 349.984 602.496 317.6 598.672 285.536 601.568 C 267.232 603.2 249.712 607.664 232.96 614.912 C 225.552 618.144 218.88 621.728 212.944 625.68 C 211.712 626.496 210.88 627.664 210.432 629.152 C 209.408 632.672 210.112 635.6 212.544 637.92 C 214.752 640.016 217.104 640.192 220.016 639.968 C 221.12 639.888 222.88 639.04 225.328 637.424 C 231.488 633.344 238.288 629.952 245.712 627.216 C 286.816 612.112 332.384 615.744 374.256 628.592 C 404.064 637.728 432.288 650.112 460.64 664.096 C 477.136 672.24 494.768 680.704 513.504 689.488 C 525.056 694.896 537.536 699.808 550.944 704.24 C 564.832 708.832 577.888 711.776 590.112 713.072 C 606.176 714.784 621.36 714.784 635.632 713.088 C 655.872 710.688 674.832 704.8 692.48 695.44 C 708.416 686.992 722.976 676.64 736.144 664.416 C 741.232 659.68 745.984 655.04 750.384 650.464 C 755.328 645.312 753.6 636.8 745.904 635.696 C 743.648 635.36 740.976 636.416 739.584 637.856 " transform="matrix(0.244141,0,0,0.244141,0,0)"/>
<path style="fill:none;stroke-width:2;stroke-linecap:butt;stroke-linejoin:miter;stroke:rgb(18.431373%,16.470589%,13.333334%);stroke-opacity:1;stroke-miterlimit:4;" d="M 213.2 686.72 C 208.064 690.352 209.312 698.432 214.992 700.752 C 217.936 701.952 220.512 701.824 222.736 700.336 C 234.944 692.192 248.336 686.112 262.928 682.112 C 284.064 676.336 305.92 674.384 328.144 677.456 C 345.456 679.84 361.84 683.952 377.296 689.776 C 379.392 690.56 384.304 692.576 392.032 695.792 C 404.176 700.848 410.976 704.992 426.752 713.264 C 430.528 715.232 433.52 717.232 436.992 719.056 C 438.848 720.032 441.408 721.488 444.656 723.408 C 462.528 734.048 472.672 740.032 475.088 741.392 C 486.784 747.904 498.336 753.6 509.744 758.464 C 524.672 764.848 540.128 769.04 556.096 771.072 C 566.912 772.464 577.968 772.576 589.28 771.44 C 600.512 770.32 612.128 767.36 624.128 762.592 C 628.096 761.024 630.096 757.12 629.04 753.024 C 627.856 748.4 624.624 746.288 619.328 746.656 C 618.88 746.688 618.448 746.784 618.032 746.944 C 601.712 753.536 584.672 756.304 566.912 755.264 C 547.472 754.096 528.64 748.704 511.024 740.704 C 491.824 731.984 474.368 721.392 453.36 708.656 C 440.32 700.752 425.808 692.928 409.856 685.152 C 396.576 678.704 381.984 673.056 366.048 668.224 C 350.944 663.648 335.52 660.8 319.76 659.68 C 285.328 657.264 252.896 664.352 222.464 680.976 C 219.104 682.816 216.016 684.72 213.2 686.72 " transform="matrix(0.244141,0,0,0.244141,0,0)"/>
<path style=" stroke:none;fill-rule:nonzero;fill:rgb(1.960784%,1.568628%,0.392157%);fill-opacity:1;" d="M 132.273438 99.183594 C 131.839844 96.265625 131.453125 93.347656 131.121094 90.433594 C 130.886719 88.40625 130.675781 86.621094 130.480469 85.082031 C 130.265625 83.351562 129.945312 80.871094 129.765625 78.363281 C 129.515625 74.910156 128.023438 72.160156 125.28125 70.117188 C 124.265625 69.359375 123.144531 68.820312 121.910156 68.5 C 121.175781 68.308594 119.929688 68.214844 118.179688 68.21875 C 96.167969 68.234375 82.039062 68.230469 75.804688 68.210938 C 74.34375 68.207031 73.082031 68.394531 72.023438 68.765625 C 67.585938 70.339844 65.117188 73.523438 64.617188 78.320312 C 64.246094 81.925781 63.796875 85.800781 63.277344 89.945312 C 63.160156 90.875 63.070312 91.675781 63.007812 92.347656 C 62.929688 93.164062 62.832031 93.964844 62.71875 94.746094 C 62.625 95.410156 62.164062 99.3125 61.339844 106.449219 C 59.984375 118.1875 59.296875 124.125 59.269531 124.269531 C 59.148438 124.925781 59.0625 125.941406 59.015625 127.320312 C 58.921875 129.9375 59.691406 132.191406 61.328125 134.089844 C 62.882812 135.894531 64.773438 137.09375 66.992188 137.679688 C 67.910156 137.917969 69.566406 138.039062 71.964844 138.039062 C 85.363281 138.03125 92.902344 138.023438 94.589844 138.011719 C 98.238281 137.988281 100.96875 138.109375 102.78125 138.382812 C 107.613281 139.101562 111.875 140.351562 115.566406 142.136719 C 120.65625 144.59375 125.015625 147.941406 128.648438 152.171875 C 129.828125 153.539062 130.917969 155.039062 131.917969 156.664062 C 131.96875 156.746094 132.035156 156.820312 132.113281 156.878906 C 133.988281 158.296875 135.804688 156.101562 136.890625 154.835938 C 137.238281 154.425781 137.671875 153.960938 138.191406 153.445312 C 142.96875 148.660156 149.109375 145.320312 155.59375 143.332031 C 158.140625 142.550781 160.628906 141.949219 163.054688 141.519531 C 169.964844 140.3125 176.953125 139.722656 184.019531 139.753906 C 184.558594 139.753906 185.453125 139.796875 186.703125 139.878906 C 187.796875 139.953125 188.691406 140.011719 189.390625 140.0625 C 193.632812 140.355469 197.648438 140.976562 201.433594 141.917969 C 201.511719 141.9375 201.59375 141.945312 201.675781 141.945312 C 202.351562 141.9375 202.890625 141.671875 203.285156 141.152344 C 203.472656 140.910156 203.5625 140.285156 203.5625 139.273438 C 203.539062 127.15625 203.53125 110.800781 203.546875 90.210938 C 203.546875 86.566406 203.574219 81.988281 203.617188 76.476562 C 203.625 75.707031 203.582031 75.21875 203.492188 75.003906 C 202.957031 73.714844 201.929688 73.617188 200.589844 73.882812 C 198.359375 74.328125 196.042969 74.828125 193.640625 75.382812 C 192.984375 75.53125 192.375 75.601562 191.746094 75.71875 C 191.671875 75.734375 191.597656 75.714844 191.539062 75.667969 C 191.480469 75.617188 191.449219 75.546875 191.449219 75.472656 L 191.449219 62.339844 C 190.640625 59.976562 188.394531 61.011719 186.605469 61.484375 C 185.6875 61.722656 182.214844 62.742188 176.179688 64.539062 C 170.796875 66.140625 165.761719 67.785156 161.085938 69.46875 C 157.242188 70.855469 153.828125 72.464844 150.839844 74.304688 C 146.121094 77.214844 142.140625 80.96875 138.898438 85.5625 C 136.007812 89.664062 133.972656 94.097656 132.792969 98.863281 C 132.746094 99.058594 132.664062 99.117188 132.546875 99.046875 C 134.683594 90.039062 140.101562 82.066406 147.300781 76.515625 C 152.316406 72.648438 158.238281 70.136719 164.207031 68.140625 C 172.085938 65.503906 180.101562 63.0625 188.261719 60.824219 C 189.183594 60.570312 190.160156 60.453125 190.875 61.085938 C 191.375 61.53125 191.625 62.03125 191.632812 62.582031 C 191.652344 65.722656 191.652344 70.023438 191.625 75.484375 C 191.625 75.511719 191.636719 75.535156 191.65625 75.550781 C 191.675781 75.566406 191.699219 75.570312 191.722656 75.566406 C 194.957031 74.878906 197.554688 74.320312 199.507812 73.890625 C 201.441406 73.46875 202.925781 73.148438 203.683594 74.980469 C 203.765625 75.183594 203.808594 75.824219 203.808594 76.898438 C 203.800781 116.898438 203.800781 137.820312 203.808594 139.652344 C 203.8125 140.816406 203.394531 141.722656 202.257812 142.085938 C 201.953125 142.183594 201.441406 142.144531 200.71875 141.96875 C 196.070312 140.839844 191.003906 140.199219 185.515625 140.046875 C 178.4375 139.855469 171.269531 140.359375 164.011719 141.558594 C 154.695312 143.097656 145.691406 146.492188 138.765625 153.113281 C 138.175781 153.675781 137.640625 154.238281 137.15625 154.796875 C 135.878906 156.265625 134.101562 158.550781 132.007812 157.066406 C 131.675781 156.828125 131.292969 156.050781 130.953125 155.539062 C 123.554688 144.476562 110.757812 138.300781 97.40625 138.257812 C 87.136719 138.222656 78.464844 138.222656 71.386719 138.253906 C 69.453125 138.265625 68.015625 138.144531 67.085938 137.894531 C 62.761719 136.738281 59.085938 133.128906 58.8125 128.507812 C 58.75 127.429688 58.808594 126.148438 58.992188 124.664062 C 59.660156 119.292969 60.410156 112.996094 61.242188 105.777344 C 61.589844 102.761719 62.699219 93.21875 64.566406 77.144531 C 64.683594 76.125 65.0625 75.003906 65.703125 73.78125 C 67.128906 71.054688 69.722656 69.144531 72.664062 68.351562 C 73.558594 68.109375 75.382812 67.992188 78.125 67.992188 C 90.390625 68.007812 104.265625 68.011719 119.75 68.003906 C 124.117188 68.003906 127.894531 71.257812 129.359375 75.242188 C 129.675781 76.109375 129.9375 77.683594 130.140625 79.960938 C 130.359375 82.402344 130.523438 84.027344 130.632812 84.832031 C 131.304688 89.589844 131.851562 94.371094 132.273438 99.183594 Z M 132.273438 99.183594 "/>
<path style=" stroke:none;fill-rule:nonzero;fill:rgb(34.901962%,31.37255%,25.882354%);fill-opacity:1;" d="M 132.273438 99.183594 C 132.429688 99.175781 132.523438 99.128906 132.546875 99.046875 C 132.664062 99.117188 132.746094 99.058594 132.792969 98.863281 C 133.972656 94.097656 136.007812 89.664062 138.898438 85.5625 C 142.140625 80.96875 146.121094 77.214844 150.839844 74.304688 C 153.828125 72.464844 157.242188 70.855469 161.085938 69.46875 C 165.761719 67.785156 170.796875 66.140625 176.179688 64.539062 C 182.214844 62.742188 185.6875 61.722656 186.605469 61.484375 C 188.394531 61.011719 190.640625 59.976562 191.441406 62.300781 L 191.449219 75.472656 C 191.449219 75.546875 191.480469 75.617188 191.539062 75.667969 C 191.597656 75.714844 191.671875 75.734375 191.746094 75.71875 C 192.375 75.601562 192.984375 75.53125 193.640625 75.382812 C 196.042969 74.828125 198.359375 74.328125 200.589844 73.882812 C 201.929688 73.617188 202.957031 73.714844 203.492188 75.003906 C 203.582031 75.21875 203.625 75.707031 203.617188 76.476562 C 203.574219 81.988281 203.546875 86.566406 203.546875 90.210938 C 203.53125 110.800781 203.539062 127.15625 203.5625 139.273438 C 203.5625 140.285156 203.472656 140.910156 203.285156 141.152344 C 202.890625 141.671875 202.351562 141.9375 201.675781 141.945312 C 201.59375 141.945312 201.511719 141.9375 201.433594 141.917969 C 197.648438 140.976562 193.632812 140.355469 189.390625 140.0625 C 188.691406 140.011719 187.796875 139.953125 186.703125 139.878906 C 185.453125 139.796875 184.558594 139.753906 184.019531 139.753906 C 176.953125 139.722656 169.964844 140.3125 163.054688 141.519531 C 160.628906 141.949219 158.140625 142.550781 155.59375 143.332031 C 149.109375 145.320312 142.96875 148.660156 138.191406 153.445312 C 137.671875 153.960938 137.238281 154.425781 136.890625 154.835938 C 135.804688 156.101562 133.988281 158.296875 132.113281 156.878906 C 132.035156 156.820312 131.96875 156.746094 131.917969 156.664062 C 130.917969 155.039062 129.828125 153.539062 128.648438 152.171875 C 125.015625 147.941406 120.65625 144.59375 115.566406 142.136719 C 111.875 140.351562 107.613281 139.101562 102.78125 138.382812 C 100.96875 138.109375 98.238281 137.988281 94.589844 138.011719 C 92.902344 138.023438 85.363281 138.03125 71.964844 138.039062 C 69.566406 138.039062 67.910156 137.917969 66.992188 137.679688 C 64.773438 137.09375 62.882812 135.894531 61.328125 134.089844 C 59.691406 132.191406 58.921875 129.9375 59.015625 127.320312 C 59.0625 125.941406 59.148438 124.925781 59.269531 124.269531 C 59.296875 124.125 59.984375 118.1875 61.339844 106.449219 C 62.164062 99.3125 62.625 95.410156 62.71875 94.746094 C 62.832031 93.964844 62.929688 93.164062 63.007812 92.347656 C 63.070312 91.675781 63.160156 90.875 63.277344 89.945312 C 63.796875 85.800781 64.246094 81.925781 64.617188 78.320312 C 65.117188 73.523438 67.585938 70.339844 72.023438 68.765625 C 73.082031 68.394531 74.34375 68.207031 75.804688 68.210938 C 82.039062 68.230469 96.167969 68.234375 118.179688 68.21875 C 119.929688 68.214844 121.175781 68.308594 121.910156 68.5 C 123.144531 68.820312 124.265625 69.359375 125.28125 70.117188 C 128.023438 72.160156 129.515625 74.910156 129.765625 78.363281 C 129.945312 80.871094 130.265625 83.351562 130.480469 85.082031 C 130.675781 86.621094 130.886719 88.40625 131.121094 90.433594 C 131.453125 93.347656 131.839844 96.265625 132.273438 99.183594 Z M 135.675781 145.621094 C 135.898438 145.617188 136.054688 145.507812 136.140625 145.300781 C 136.152344 145.328125 136.167969 145.351562 136.179688 145.367188 C 139.710938 140.003906 144.183594 135.746094 149.675781 132.585938 C 152.335938 131.054688 155.101562 129.777344 157.976562 128.746094 C 160.675781 127.785156 162.71875 127.101562 164.113281 126.695312 C 171.46875 124.566406 178.949219 122.753906 186.558594 121.257812 C 187.113281 121.152344 187.375 120.816406 187.347656 120.246094 C 187.296875 119.230469 187.460938 117.46875 187.375 115.785156 C 187.351562 115.304688 187.34375 113.089844 187.347656 109.132812 C 187.347656 108.277344 187.460938 107.574219 187.351562 106.695312 C 187.324219 106.480469 187.339844 106.257812 187.402344 106.023438 C 187.414062 105.972656 187.421875 105.921875 187.421875 105.871094 C 187.351562 101.625 187.335938 98.78125 187.367188 97.335938 C 187.4375 94.136719 187.4375 91.214844 187.371094 88.578125 C 187.335938 87.207031 187.328125 83.601562 187.347656 77.769531 C 187.351562 76.066406 187.339844 72.148438 187.308594 66.023438 C 187.308594 65.933594 187.269531 65.867188 187.191406 65.828125 C 187.109375 65.785156 187.078125 65.800781 187.09375 65.863281 C 187.066406 65.863281 187.039062 65.863281 187.015625 65.863281 C 187.019531 65.742188 186.9375 65.703125 186.761719 65.75 C 179.414062 67.761719 171.898438 70.09375 164.21875 72.742188 C 157.410156 75.09375 150.945312 78.460938 145.902344 83.703125 C 140.390625 89.433594 136.726562 96.976562 135.902344 104.921875 C 135.777344 106.121094 135.636719 107.542969 135.632812 108.992188 C 135.59375 121.804688 135.589844 133.519531 135.621094 144.132812 C 135.621094 144.148438 135.609375 144.375 135.589844 144.804688 C 135.574219 145.109375 135.601562 145.382812 135.675781 145.621094 Z M 99.839844 108.824219 C 105.332031 108.800781 110.714844 108.785156 115.984375 108.773438 C 118.59375 108.769531 120.203125 108.707031 120.820312 108.578125 C 122.390625 108.25 123.828125 107.542969 125.125 106.453125 C 126.9375 104.9375 127.898438 103.019531 128.015625 100.703125 C 128.058594 99.902344 127.886719 98.710938 127.808594 98.042969 C 127.652344 96.726562 126.941406 90.351562 125.675781 78.914062 C 125.542969 77.722656 125.367188 76.867188 125.148438 76.34375 C 124.324219 74.402344 122.941406 73.125 121 72.515625 C 120.289062 72.296875 119.023438 72.242188 118.421875 72.242188 C 107.859375 72.265625 94.175781 72.261719 77.375 72.238281 C 76.152344 72.238281 75.140625 72.316406 74.347656 72.472656 C 71.902344 72.964844 70.226562 74.308594 69.3125 76.511719 C 68.988281 77.296875 68.824219 78.726562 68.75 79.371094 C 67.902344 86.695312 67.183594 92.726562 66.597656 97.472656 C 66.34375 99.550781 66.214844 101.578125 67.058594 103.425781 C 68.253906 106.046875 70.15625 107.757812 72.769531 108.5625 C 73.765625 108.871094 75.480469 109.015625 77.90625 109 C 86.59375 108.949219 90.347656 108.871094 99.839844 108.824219 Z M 142.308594 144.457031 C 142.328125 144.519531 142.378906 144.5625 142.457031 144.585938 C 142.464844 144.710938 142.582031 144.707031 142.808594 144.566406 C 147.285156 141.855469 152.097656 139.878906 157.246094 138.636719 C 163.273438 137.183594 170.035156 136.285156 177.523438 135.941406 C 178.679688 135.890625 181.234375 135.875 185.179688 135.894531 C 187.019531 135.902344 188.777344 136.042969 190.796875 136.171875 C 192.390625 136.273438 194.933594 136.664062 198.425781 137.339844 C 198.691406 137.394531 198.945312 137.375 199.1875 137.28125 C 199.265625 137.253906 199.320312 137.1875 199.332031 137.109375 C 199.433594 136.5625 199.484375 136.230469 199.484375 136.125 C 199.5 131.894531 199.503906 112.988281 199.5 79.40625 C 199.5 78.636719 199.363281 78.328125 198.539062 78.527344 C 196.117188 79.117188 193.914062 79.601562 191.921875 79.976562 C 191.660156 80.027344 191.472656 80.253906 191.46875 80.523438 C 191.429688 90.632812 191.421875 104.664062 191.453125 122.621094 C 191.453125 123.816406 190.898438 124.527344 189.78125 124.746094 C 185.921875 125.503906 181.289062 126.527344 175.882812 127.816406 C 171.1875 128.9375 166.75 130.1875 162.570312 131.566406 C 157.445312 133.257812 152.847656 135.238281 148.488281 138.296875 C 147.582031 138.929688 146.761719 139.582031 146.023438 140.246094 C 144.6875 141.449219 143.925781 142.171875 143.738281 142.410156 C 143.148438 143.167969 142.632812 143.800781 142.195312 144.3125 C 142.167969 144.34375 142.15625 144.382812 142.164062 144.421875 C 142.171875 144.460938 142.195312 144.496094 142.230469 144.515625 C 142.238281 144.523438 142.261719 144.5 142.308594 144.457031 Z M 65.734375 108.285156 C 65.621094 108.171875 65.539062 108.175781 65.484375 108.289062 C 65.394531 108.214844 65.347656 108.199219 65.34375 108.246094 C 64.699219 114.085938 64.023438 119.851562 63.3125 125.550781 C 63.035156 127.746094 62.96875 129.628906 64.332031 131.476562 C 65.855469 133.539062 68.4375 133.941406 70.921875 133.953125 C 79.179688 133.980469 86.667969 133.972656 93.386719 133.941406 C 98.210938 133.914062 101.605469 134.03125 103.566406 134.289062 C 108.867188 134.980469 113.855469 136.550781 118.527344 138.996094 C 122.914062 141.292969 126.828125 144.210938 130.273438 147.746094 C 130.5625 148.042969 130.78125 148.316406 130.933594 148.566406 C 131.007812 148.683594 131.148438 148.738281 131.277344 148.695312 C 131.410156 148.652344 131.492188 148.523438 131.480469 148.390625 C 131.445312 147.917969 131.4375 147.484375 131.460938 147.085938 C 131.59375 144.585938 131.46875 141.6875 131.566406 138.859375 C 131.628906 137.121094 131.480469 135.398438 131.125 133.703125 C 130.285156 129.703125 127.90625 126.746094 125.222656 123.515625 C 124.535156 122.691406 123.839844 121.921875 123.140625 121.207031 C 122.007812 120.0625 121.253906 119.324219 120.871094 119 C 116.585938 115.347656 111.617188 113.265625 105.953125 112.761719 C 104.203125 112.605469 101.925781 112.539062 99.121094 112.5625 C 87.921875 112.652344 80.070312 112.730469 75.570312 112.789062 C 71.625 112.839844 68.378906 111.3125 65.835938 108.207031 C 65.734375 108.238281 65.734375 108.261719 65.734375 108.285156 Z M 65.734375 108.285156 "/>
<path style=" stroke:none;fill-rule:nonzero;fill:rgb(1.960784%,1.568628%,0.392157%);fill-opacity:1;" d="M 187.015625 65.863281 C 179.621094 67.960938 172.285156 70.234375 165.003906 72.679688 C 162.308594 73.585938 159.683594 74.652344 157.125 75.875 C 150.277344 79.164062 144.933594 83.945312 141.097656 90.222656 C 139.359375 93.070312 138.066406 96.03125 137.21875 99.109375 C 136.308594 102.398438 135.855469 105.597656 135.847656 108.703125 C 135.824219 127.554688 135.816406 139.375 135.824219 144.164062 C 135.824219 144.707031 135.777344 145.191406 135.675781 145.621094 C 135.601562 145.382812 135.574219 145.109375 135.589844 144.804688 C 135.609375 144.375 135.621094 144.148438 135.621094 144.132812 C 135.589844 133.519531 135.59375 121.804688 135.632812 108.992188 C 135.636719 107.542969 135.777344 106.121094 135.902344 104.921875 C 136.726562 96.976562 140.390625 89.433594 145.902344 83.703125 C 150.945312 78.460938 157.410156 75.09375 164.21875 72.742188 C 171.898438 70.09375 179.414062 67.761719 186.761719 65.75 C 186.9375 65.703125 187.019531 65.742188 187.015625 65.863281 Z M 187.015625 65.863281 "/>
<path style=" stroke:none;fill-rule:nonzero;fill:rgb(1.960784%,1.568628%,0.392157%);fill-opacity:1;" d="M 136.140625 145.300781 C 139.695312 139.34375 145.355469 134.515625 151.5 131.359375 C 155.601562 129.253906 160.179688 127.613281 164.5625 126.359375 C 172.1875 124.175781 179.238281 122.546875 186.839844 120.964844 C 186.988281 120.9375 187.097656 120.804688 187.097656 120.652344 L 187.09375 65.863281 C 187.078125 65.800781 187.109375 65.785156 187.191406 65.828125 C 187.269531 65.867188 187.308594 65.933594 187.308594 66.023438 C 187.339844 72.148438 187.351562 76.066406 187.347656 77.769531 C 187.328125 83.601562 187.335938 87.207031 187.371094 88.578125 C 187.4375 91.214844 187.4375 94.136719 187.367188 97.335938 C 187.335938 98.78125 187.351562 101.625 187.421875 105.871094 C 187.421875 105.921875 187.414062 105.972656 187.402344 106.023438 C 187.339844 106.257812 187.324219 106.480469 187.351562 106.695312 C 187.460938 107.574219 187.347656 108.277344 187.347656 109.132812 C 187.34375 113.089844 187.351562 115.304688 187.375 115.785156 C 187.460938 117.46875 187.296875 119.230469 187.347656 120.246094 C 187.375 120.816406 187.113281 121.152344 186.558594 121.257812 C 178.949219 122.753906 171.46875 124.566406 164.113281 126.695312 C 162.71875 127.101562 160.675781 127.785156 157.976562 128.746094 C 155.101562 129.777344 152.335938 131.054688 149.675781 132.585938 C 144.183594 135.746094 139.710938 140.003906 136.261719 145.367188 C 136.167969 145.351562 136.152344 145.328125 136.140625 145.300781 Z M 136.140625 145.300781 "/>
<path style=" stroke:none;fill-rule:nonzero;fill:rgb(95.686275%,92.156863%,86.666667%);fill-opacity:1;" d="M 187.015625 65.863281 C 187.039062 65.863281 187.066406 65.863281 187.09375 65.863281 L 187.097656 120.652344 C 187.097656 120.804688 186.988281 120.9375 186.839844 120.964844 C 179.238281 122.546875 172.1875 124.175781 164.5625 126.359375 C 160.179688 127.613281 155.601562 129.253906 151.5 131.359375 C 145.355469 134.515625 139.695312 139.34375 136.140625 145.300781 C 136.054688 145.507812 135.898438 145.617188 135.675781 145.621094 C 135.777344 145.191406 135.824219 144.707031 135.824219 144.164062 C 135.816406 139.375 135.824219 127.554688 135.847656 108.703125 C 135.855469 105.597656 136.308594 102.398438 137.21875 99.109375 C 138.066406 96.03125 139.359375 93.070312 141.097656 90.222656 C 144.933594 83.945312 150.277344 79.164062 157.125 75.875 C 159.683594 74.652344 162.308594 73.585938 165.003906 72.679688 C 172.285156 70.234375 179.621094 67.960938 187.015625 65.863281 Z M 187.015625 65.863281 "/>
<path style=" stroke:none;fill-rule:nonzero;fill:rgb(1.960784%,1.568628%,0.392157%);fill-opacity:1;" d="M 99.839844 108.824219 C 90.347656 108.871094 86.59375 108.949219 77.90625 109 C 75.480469 109.015625 73.765625 108.871094 72.769531 108.5625 C 70.15625 107.757812 68.253906 106.046875 67.058594 103.425781 C 66.214844 101.578125 66.34375 99.550781 66.597656 97.472656 C 67.183594 92.726562 67.902344 86.695312 68.75 79.371094 C 68.824219 78.726562 68.988281 77.296875 69.3125 76.511719 C 70.226562 74.308594 71.902344 72.964844 74.347656 72.472656 C 75.140625 72.316406 76.152344 72.238281 77.375 72.238281 C 94.175781 72.261719 107.859375 72.265625 118.421875 72.242188 C 119.023438 72.242188 120.289062 72.296875 121 72.515625 C 122.941406 73.125 124.324219 74.402344 125.148438 76.34375 C 125.367188 76.867188 125.542969 77.722656 125.675781 78.914062 C 126.941406 90.351562 127.652344 96.726562 127.808594 98.042969 C 127.886719 98.710938 128.058594 99.902344 128.015625 100.703125 C 127.898438 103.019531 126.9375 104.9375 125.125 106.453125 C 123.828125 107.542969 122.390625 108.25 120.820312 108.578125 C 120.203125 108.707031 118.59375 108.769531 115.984375 108.773438 C 110.714844 108.785156 105.332031 108.800781 99.839844 108.824219 Z M 125.023438 76.585938 C 124.277344 74.386719 122.308594 72.726562 119.941406 72.554688 C 119.070312 72.496094 118.316406 72.464844 117.675781 72.464844 C 106.425781 72.480469 93.078125 72.480469 77.636719 72.464844 C 75.945312 72.460938 74.769531 72.542969 74.105469 72.707031 C 71.105469 73.457031 69.421875 75.398438 69.054688 78.527344 C 67.796875 89.277344 67.085938 95.257812 66.929688 96.460938 C 66.609375 98.949219 66.53125 100.644531 66.695312 101.542969 C 67.296875 104.820312 69.582031 107.40625 72.777344 108.355469 C 73.800781 108.660156 74.929688 108.804688 76.171875 108.785156 C 83.199219 108.699219 97.316406 108.617188 118.53125 108.539062 C 121.839844 108.527344 124.820312 107.292969 126.625 104.488281 C 127.636719 102.917969 128.027344 101.167969 127.796875 99.238281 C 126.480469 88.023438 125.738281 81.617188 125.433594 78.726562 C 125.335938 77.824219 125.199219 77.109375 125.023438 76.585938 Z M 125.023438 76.585938 "/>
<path style=" stroke:none;fill-rule:nonzero;fill:rgb(95.686275%,92.156863%,86.666667%);fill-opacity:1;" d="M 119.941406 72.554688 C 122.308594 72.726562 124.277344 74.386719 125.023438 76.585938 C 125.199219 77.109375 125.335938 77.824219 125.433594 78.726562 C 125.738281 81.617188 126.480469 88.023438 127.796875 99.238281 C 128.027344 101.167969 127.636719 102.917969 126.625 104.488281 C 124.820312 107.292969 121.839844 108.527344 118.53125 108.539062 C 97.316406 108.617188 83.199219 108.699219 76.171875 108.785156 C 74.929688 108.804688 73.800781 108.660156 72.777344 108.355469 C 69.582031 107.40625 67.296875 104.820312 66.695312 101.542969 C 66.53125 100.644531 66.609375 98.949219 66.929688 96.460938 C 67.085938 95.257812 67.796875 89.277344 69.054688 78.527344 C 69.421875 75.398438 71.105469 73.457031 74.105469 72.707031 C 74.769531 72.542969 75.945312 72.460938 77.636719 72.464844 C 93.078125 72.480469 106.425781 72.480469 117.675781 72.464844 C 118.316406 72.464844 119.070312 72.496094 119.941406 72.554688 Z M 89.582031 88.242188 C 88.589844 92.40625 91.203125 96.601562 95.425781 97.605469 C 99.644531 98.613281 103.867188 96.046875 104.863281 91.882812 C 105.855469 87.714844 103.238281 83.519531 99.019531 82.515625 C 94.800781 81.511719 90.574219 84.074219 89.582031 88.242188 Z M 89.582031 88.242188 "/>
<path style=" stroke:none;fill-rule:nonzero;fill:rgb(1.960784%,1.568628%,0.392157%);fill-opacity:1;" d="M 142.457031 144.585938 C 147.207031 141.644531 152.175781 139.574219 157.363281 138.382812 C 166.359375 136.3125 175.9375 135.410156 186.101562 135.679688 C 190.21875 135.785156 194.277344 136.269531 198.269531 137.128906 C 198.488281 137.175781 198.746094 137.195312 199.039062 137.183594 C 199.15625 137.179688 199.25 137.082031 199.25 136.960938 L 199.25 78.796875 C 199.25 78.75 199.230469 78.707031 199.191406 78.675781 C 199.15625 78.644531 199.105469 78.632812 199.058594 78.644531 L 191.824219 80.214844 C 191.722656 80.234375 191.648438 80.328125 191.648438 80.433594 C 191.636719 103.414062 191.640625 117.296875 191.664062 122.070312 C 191.667969 123.53125 191.335938 124.613281 189.851562 124.914062 C 179.679688 126.996094 169.570312 129.304688 160.40625 132.511719 C 153.570312 134.902344 146.785156 138.59375 142.308594 144.457031 C 142.261719 144.5 142.238281 144.523438 142.230469 144.515625 C 142.195312 144.496094 142.171875 144.460938 142.164062 144.421875 C 142.15625 144.382812 142.167969 144.34375 142.195312 144.3125 C 142.632812 143.800781 143.148438 143.167969 143.738281 142.410156 C 143.925781 142.171875 144.6875 141.449219 146.023438 140.246094 C 146.761719 139.582031 147.582031 138.929688 148.488281 138.296875 C 152.847656 135.238281 157.445312 133.257812 162.570312 131.566406 C 166.75 130.1875 171.1875 128.9375 175.882812 127.816406 C 181.289062 126.527344 185.921875 125.503906 189.78125 124.746094 C 190.898438 124.527344 191.453125 123.816406 191.453125 122.621094 C 191.421875 104.664062 191.429688 90.632812 191.46875 80.523438 C 191.472656 80.253906 191.660156 80.027344 191.925781 79.976562 C 193.914062 79.601562 196.117188 79.117188 198.539062 78.527344 C 199.363281 78.328125 199.5 78.636719 199.5 79.40625 C 199.503906 112.988281 199.5 131.894531 199.484375 136.125 C 199.484375 136.230469 199.433594 136.5625 199.332031 137.109375 C 199.320312 137.1875 199.265625 137.253906 199.1875 137.28125 C 198.945312 137.375 198.691406 137.394531 198.425781 137.339844 C 194.933594 136.664062 192.390625 136.273438 190.796875 136.171875 C 188.777344 136.042969 187.019531 135.902344 185.179688 135.894531 C 181.234375 135.875 178.679688 135.890625 177.523438 135.941406 C 170.035156 136.285156 163.273438 137.183594 157.246094 138.636719 C 152.097656 139.878906 147.285156 141.855469 142.808594 144.566406 C 142.582031 144.707031 142.464844 144.710938 142.457031 144.585938 Z M 142.457031 144.585938 "/>
<path style=" stroke:none;fill-rule:nonzero;fill:rgb(95.686275%,92.156863%,86.666667%);fill-opacity:1;" d="M 142.457031 144.585938 C 142.378906 144.5625 142.328125 144.519531 142.308594 144.457031 C 146.785156 138.59375 153.570312 134.902344 160.40625 132.511719 C 169.570312 129.304688 179.679688 126.996094 189.851562 124.914062 C 191.335938 124.613281 191.667969 123.53125 191.664062 122.070312 C 191.640625 117.296875 191.636719 103.414062 191.648438 80.433594 C 191.648438 80.328125 191.722656 80.234375 191.824219 80.214844 L 199.058594 78.644531 C 199.105469 78.632812 199.15625 78.644531 199.191406 78.675781 C 199.230469 78.707031 199.25 78.75 199.25 78.796875 L 199.25 136.960938 C 199.25 137.082031 199.15625 137.179688 199.039062 137.183594 C 198.746094 137.195312 198.488281 137.175781 198.269531 137.128906 C 194.277344 136.269531 190.21875 135.785156 186.101562 135.679688 C 175.9375 135.410156 166.359375 136.3125 157.363281 138.382812 C 152.175781 139.574219 147.207031 141.644531 142.457031 144.585938 Z M 142.457031 144.585938 "/>
<path style=" stroke:none;fill-rule:nonzero;fill:rgb(1.960784%,1.568628%,0.392157%);fill-opacity:1;" d="M 89.582031 88.242188 C 90.574219 84.074219 94.800781 81.511719 99.019531 82.515625 C 103.238281 83.519531 105.855469 87.714844 104.863281 91.882812 C 103.867188 96.046875 99.644531 98.613281 95.425781 97.605469 C 91.203125 96.601562 88.589844 92.40625 89.582031 88.242188 Z M 89.847656 88.066406 C 88.753906 92.089844 91.175781 96.253906 95.257812 97.363281 C 99.339844 98.472656 103.535156 96.105469 104.628906 92.082031 C 105.722656 88.054688 103.300781 83.894531 99.21875 82.785156 C 95.136719 81.675781 90.941406 84.039062 89.847656 88.066406 Z M 89.847656 88.066406 "/>
<path style=" stroke:none;fill-rule:nonzero;fill:rgb(34.901962%,31.37255%,25.882354%);fill-opacity:1;" d="M 89.847656 88.066406 C 88.753906 92.089844 91.175781 96.253906 95.257812 97.363281 C 99.339844 98.472656 103.535156 96.105469 104.628906 92.082031 C 105.722656 88.054688 103.300781 83.894531 99.21875 82.785156 C 95.136719 81.675781 90.941406 84.039062 89.847656 88.066406 Z M 89.847656 88.066406 "/>
<path style=" stroke:none;fill-rule:nonzero;fill:rgb(1.960784%,1.568628%,0.392157%);fill-opacity:1;" d="M 65.484375 108.289062 C 65.4375 109.074219 65.367188 109.859375 65.277344 110.648438 C 64.261719 119.410156 63.683594 124.316406 63.535156 125.367188 C 63.191406 127.855469 63.128906 130.054688 64.96875 131.882812 C 66.675781 133.582031 68.777344 133.703125 71.167969 133.734375 C 72.4375 133.75 79.886719 133.746094 93.507812 133.71875 C 98.273438 133.707031 101.683594 133.839844 103.742188 134.117188 C 114.03125 135.496094 123.546875 140.367188 130.601562 147.898438 C 130.789062 148.101562 130.96875 148.320312 131.140625 148.554688 C 131.164062 148.582031 131.199219 148.59375 131.230469 148.582031 C 131.261719 148.574219 131.28125 148.542969 131.28125 148.511719 C 131.308594 143.511719 131.308594 139.726562 131.285156 137.148438 C 131.242188 132.75 129.757812 129.511719 126.988281 126.011719 C 125.71875 124.402344 124.789062 123.257812 124.195312 122.570312 C 119.105469 116.648438 112.25 113.078125 104.367188 112.855469 C 102.550781 112.800781 101.386719 112.773438 100.875 112.777344 C 96.691406 112.78125 89.488281 112.84375 79.265625 112.96875 C 75.972656 113.007812 73.917969 112.949219 73.09375 112.789062 C 70.257812 112.242188 67.433594 110.691406 65.734375 108.285156 C 65.734375 108.261719 65.734375 108.238281 65.738281 108.222656 C 68.378906 111.3125 71.625 112.839844 75.570312 112.789062 C 80.070312 112.730469 87.921875 112.652344 99.121094 112.5625 C 101.925781 112.539062 104.203125 112.605469 105.953125 112.761719 C 111.617188 113.265625 116.585938 115.347656 120.871094 119 C 121.253906 119.324219 122.007812 120.0625 123.140625 121.207031 C 123.839844 121.921875 124.535156 122.691406 125.222656 123.515625 C 127.90625 126.746094 130.285156 129.703125 131.125 133.703125 C 131.480469 135.398438 131.628906 137.121094 131.566406 138.859375 C 131.46875 141.6875 131.59375 144.585938 131.460938 147.085938 C 131.4375 147.484375 131.445312 147.917969 131.480469 148.390625 C 131.492188 148.523438 131.410156 148.652344 131.277344 148.695312 C 131.148438 148.738281 131.007812 148.683594 130.933594 148.566406 C 130.78125 148.316406 130.5625 148.042969 130.273438 147.746094 C 126.828125 144.210938 122.914062 141.292969 118.527344 138.996094 C 113.855469 136.550781 108.867188 134.980469 103.566406 134.289062 C 101.605469 134.03125 98.210938 133.914062 93.386719 133.941406 C 86.667969 133.972656 79.179688 133.980469 70.921875 133.953125 C 68.4375 133.941406 65.855469 133.539062 64.332031 131.476562 C 62.96875 129.628906 63.035156 127.746094 63.3125 125.550781 C 64.023438 119.851562 64.699219 114.085938 65.34375 108.246094 C 65.347656 108.199219 65.394531 108.214844 65.484375 108.289062 Z M 65.484375 108.289062 "/>
<path style=" stroke:none;fill-rule:nonzero;fill:rgb(95.686275%,92.156863%,86.666667%);fill-opacity:1;" d="M 65.734375 108.285156 C 67.433594 110.691406 70.257812 112.242188 73.09375 112.789062 C 73.917969 112.949219 75.972656 113.007812 79.265625 112.96875 C 89.488281 112.84375 96.691406 112.78125 100.875 112.777344 C 101.386719 112.773438 102.550781 112.800781 104.367188 112.855469 C 112.25 113.078125 119.105469 116.648438 124.195312 122.570312 C 124.789062 123.257812 125.71875 124.402344 126.988281 126.011719 C 129.757812 129.511719 131.242188 132.75 131.285156 137.148438 C 131.308594 139.726562 131.308594 143.511719 131.28125 148.511719 C 131.28125 148.542969 131.261719 148.574219 131.230469 148.582031 C 131.199219 148.59375 131.164062 148.582031 131.140625 148.554688 C 130.96875 148.320312 130.789062 148.101562 130.601562 147.898438 C 123.546875 140.367188 114.03125 135.496094 103.742188 134.117188 C 101.683594 133.839844 98.273438 133.707031 93.507812 133.71875 C 79.886719 133.746094 72.4375 133.75 71.167969 133.734375 C 68.777344 133.703125 66.675781 133.582031 64.96875 131.882812 C 63.128906 130.054688 63.191406 127.855469 63.535156 125.367188 C 63.683594 124.316406 64.261719 119.410156 65.277344 110.648438 C 65.367188 109.859375 65.4375 109.074219 65.484375 108.289062 C 65.539062 108.175781 65.621094 108.171875 65.734375 108.285156 Z M 65.734375 108.285156 "/>
<path style=" stroke:none;fill-rule:nonzero;fill:rgb(1.960784%,1.568628%,0.392157%);fill-opacity:1;" d="M 180.847656 155.167969 C 182.429688 154.324219 184.214844 155.640625 184.089844 157.328125 C 184.042969 157.917969 183.765625 158.480469 183.25 159.015625 C 177.589844 164.925781 171.128906 169.773438 163.351562 172.449219 C 154.621094 175.457031 144.707031 175.238281 135.8125 172.5625 C 127.925781 170.1875 120.0625 166.085938 113.066406 162.625 C 104.382812 158.335938 95.414062 154.410156 86.226562 152.300781 C 78.96875 150.636719 71.152344 150.378906 63.835938 152.140625 C 60.648438 152.90625 57.824219 154.0625 55.367188 155.609375 C 54.476562 156.167969 53.824219 156.457031 53.402344 156.46875 C 51.683594 156.519531 50.578125 154.839844 51.339844 153.21875 C 51.476562 152.933594 51.832031 152.613281 52.414062 152.257812 C 59.566406 147.867188 67.785156 146.199219 76.15625 146.441406 C 83.230469 146.652344 89.964844 148.179688 96.570312 150.5 C 102.003906 152.410156 107.605469 154.785156 113.375 157.625 C 118.207031 160.003906 122.207031 161.964844 125.375 163.507812 C 129.515625 165.519531 133.554688 167.113281 137.488281 168.285156 C 140.90625 169.304688 144.617188 169.890625 148.617188 170.046875 C 154.617188 170.277344 160.289062 169.128906 165.632812 166.605469 C 171.109375 164.015625 176.078125 160.0625 180.222656 155.566406 C 180.296875 155.484375 180.507812 155.351562 180.847656 155.167969 Z M 180.5625 155.726562 C 180.152344 156.152344 179.804688 156.453125 179.523438 156.636719 C 179.46875 156.671875 179.417969 156.710938 179.371094 156.757812 C 175.847656 160.347656 171.832031 163.605469 167.4375 165.914062 C 165.890625 166.730469 164.753906 167.28125 164.03125 167.566406 C 158.191406 169.902344 152.125 170.742188 145.828125 170.078125 C 140.933594 169.5625 136.125 168.335938 131.40625 166.390625 C 129.023438 165.40625 126.910156 164.46875 125.0625 163.570312 C 121.800781 161.984375 117.847656 160.042969 113.199219 157.742188 C 107.109375 154.730469 100.347656 151.910156 93.425781 149.671875 C 85.445312 147.09375 77.539062 146.160156 69.710938 146.867188 C 65.242188 147.265625 60.964844 148.355469 56.875 150.125 C 55.066406 150.914062 53.4375 151.789062 51.988281 152.753906 C 51.6875 152.953125 51.484375 153.238281 51.375 153.601562 C 51.125 154.460938 51.296875 155.175781 51.890625 155.742188 C 52.429688 156.253906 53.003906 156.296875 53.714844 156.242188 C 53.984375 156.222656 54.414062 156.015625 55.011719 155.621094 C 56.515625 154.625 58.175781 153.796875 59.988281 153.128906 C 70.023438 149.441406 81.148438 150.328125 91.371094 153.464844 C 98.648438 155.695312 105.539062 158.71875 112.460938 162.132812 C 116.488281 164.121094 120.792969 166.1875 125.367188 168.332031 C 128.1875 169.652344 131.234375 170.851562 134.507812 171.933594 C 137.898438 173.054688 141.085938 173.773438 144.070312 174.089844 C 147.992188 174.507812 151.699219 174.507812 155.183594 174.09375 C 160.125 173.507812 164.753906 172.070312 169.0625 169.785156 C 172.953125 167.722656 176.507812 165.195312 179.722656 162.210938 C 180.964844 161.054688 182.125 159.921875 183.199219 158.804688 C 184.40625 157.546875 183.984375 155.46875 182.105469 155.199219 C 181.554688 155.117188 180.902344 155.375 180.5625 155.726562 Z M 180.5625 155.726562 "/>
<path style=" stroke:none;fill-rule:nonzero;fill:rgb(34.901962%,31.37255%,25.882354%);fill-opacity:1;" d="M 180.5625 155.726562 C 180.902344 155.375 181.554688 155.117188 182.105469 155.199219 C 183.984375 155.46875 184.40625 157.546875 183.199219 158.804688 C 182.125 159.921875 180.964844 161.054688 179.722656 162.210938 C 176.507812 165.195312 172.953125 167.722656 169.0625 169.785156 C 164.753906 172.070312 160.125 173.507812 155.183594 174.09375 C 151.699219 174.507812 147.992188 174.507812 144.070312 174.089844 C 141.085938 173.773438 137.898438 173.054688 134.507812 171.933594 C 131.234375 170.851562 128.1875 169.652344 125.367188 168.332031 C 120.792969 166.1875 116.488281 164.121094 112.460938 162.132812 C 105.539062 158.71875 98.648438 155.695312 91.371094 153.464844 C 81.148438 150.328125 70.023438 149.441406 59.988281 153.128906 C 58.175781 153.796875 56.515625 154.625 55.011719 155.621094 C 54.414062 156.015625 53.984375 156.222656 53.714844 156.242188 C 53.003906 156.296875 52.429688 156.253906 51.890625 155.742188 C 51.296875 155.175781 51.125 154.460938 51.375 153.601562 C 51.484375 153.238281 51.6875 152.953125 51.988281 152.753906 C 53.4375 151.789062 55.066406 150.914062 56.875 150.125 C 60.964844 148.355469 65.242188 147.265625 69.710938 146.867188 C 77.539062 146.160156 85.445312 147.09375 93.425781 149.671875 C 100.347656 151.910156 107.109375 154.730469 113.199219 157.742188 C 117.847656 160.042969 121.800781 161.984375 125.0625 163.570312 C 126.910156 164.46875 129.023438 165.40625 131.40625 166.390625 C 136.125 168.335938 140.933594 169.5625 145.828125 170.078125 C 152.125 170.742188 158.191406 169.902344 164.03125 167.566406 C 164.753906 167.28125 165.890625 166.730469 167.4375 165.914062 C 171.832031 163.605469 175.847656 160.347656 179.371094 156.757812 C 179.417969 156.710938 179.46875 156.671875 179.523438 156.636719 C 179.804688 156.453125 180.152344 156.152344 180.5625 155.726562 Z M 180.5625 155.726562 "/>
<path style=" stroke:none;fill-rule:nonzero;fill:rgb(1.960784%,1.568628%,0.392157%);fill-opacity:1;" d="M 51.128906 168.667969 C 51.339844 167.625 53.101562 166.707031 54.222656 166.09375 C 62.09375 161.78125 70.46875 160.070312 79.347656 160.953125 C 86.96875 161.710938 94.578125 164.246094 101.554688 167.789062 C 107.617188 170.871094 112.898438 174.148438 118.144531 177.203125 C 121.171875 178.960938 124.332031 180.492188 127.625 181.796875 C 134.753906 184.617188 142.917969 185.1875 150.089844 182.445312 C 150.84375 182.15625 151.371094 182.027344 151.667969 182.054688 C 153.105469 182.203125 154.058594 183.308594 153.761719 184.765625 C 153.605469 185.539062 153.207031 186.054688 152.5625 186.316406 C 146.734375 188.667969 140.667969 189.316406 134.363281 188.253906 C 127.296875 187.0625 120.804688 184.101562 114.714844 180.503906 C 107.632812 176.320312 103.285156 173.699219 97.050781 170.714844 C 92.203125 168.394531 87.242188 166.789062 82.164062 165.898438 C 75.832031 164.785156 69.597656 165.140625 63.460938 166.960938 C 60.355469 167.878906 57.625 169.113281 55.265625 170.664062 C 54.421875 171.21875 53.84375 171.496094 53.53125 171.5 C 51.90625 171.527344 50.796875 170.328125 51.128906 168.667969 Z M 52.050781 167.65625 C 50.796875 168.542969 51.101562 170.515625 52.488281 171.082031 C 53.207031 171.375 53.835938 171.34375 54.378906 170.980469 C 57.359375 168.992188 60.628906 167.507812 64.191406 166.53125 C 69.351562 165.121094 74.6875 164.644531 80.113281 165.394531 C 84.339844 165.976562 88.339844 166.980469 92.113281 168.402344 C 92.625 168.59375 93.824219 169.085938 95.710938 169.871094 C 98.675781 171.105469 100.335938 172.117188 104.1875 174.136719 C 105.109375 174.617188 105.839844 175.105469 106.6875 175.550781 C 107.140625 175.789062 107.765625 176.144531 108.558594 176.613281 C 112.921875 179.210938 115.398438 180.671875 115.988281 181.003906 C 118.84375 182.59375 121.664062 183.984375 124.449219 185.171875 C 128.09375 186.730469 131.867188 187.753906 135.765625 188.25 C 138.40625 188.589844 141.105469 188.617188 143.867188 188.339844 C 146.609375 188.066406 149.445312 187.34375 152.375 186.179688 C 153.34375 185.796875 153.832031 184.84375 153.574219 183.84375 C 153.285156 182.714844 152.496094 182.199219 151.203125 182.289062 C 151.09375 182.296875 150.988281 182.320312 150.886719 182.359375 C 146.902344 183.96875 142.742188 184.644531 138.40625 184.390625 C 133.660156 184.105469 129.0625 182.789062 124.761719 180.835938 C 120.074219 178.707031 115.8125 176.121094 110.683594 173.011719 C 107.5 171.082031 103.957031 169.171875 100.0625 167.273438 C 96.820312 165.699219 93.257812 164.320312 89.367188 163.140625 C 85.679688 162.023438 81.914062 161.328125 78.066406 161.054688 C 69.660156 160.464844 61.742188 162.195312 54.3125 166.253906 C 53.492188 166.703125 52.738281 167.167969 52.050781 167.65625 Z M 52.050781 167.65625 "/>
<path style=" stroke:none;fill-rule:nonzero;fill:rgb(34.901962%,31.37255%,25.882354%);fill-opacity:1;" d="M 52.488281 171.082031 C 51.101562 170.515625 50.796875 168.542969 52.050781 167.65625 C 52.738281 167.167969 53.492188 166.703125 54.3125 166.253906 C 61.742188 162.195312 69.660156 160.464844 78.066406 161.054688 C 81.914062 161.328125 85.679688 162.023438 89.367188 163.140625 C 93.257812 164.320312 96.820312 165.699219 100.0625 167.273438 C 103.957031 169.171875 107.5 171.082031 110.683594 173.011719 C 115.8125 176.121094 120.074219 178.707031 124.761719 180.835938 C 129.0625 182.789062 133.660156 184.105469 138.40625 184.390625 C 142.742188 184.644531 146.902344 183.96875 150.886719 182.359375 C 150.988281 182.320312 151.09375 182.296875 151.203125 182.289062 C 152.496094 182.199219 153.285156 182.714844 153.574219 183.84375 C 153.832031 184.84375 153.34375 185.796875 152.375 186.179688 C 149.445312 187.34375 146.609375 188.066406 143.867188 188.339844 C 141.105469 188.617188 138.40625 188.589844 135.765625 188.25 C 131.867188 187.753906 128.09375 186.730469 124.449219 185.171875 C 121.664062 183.984375 118.84375 182.59375 115.988281 181.003906 C 115.398438 180.671875 112.921875 179.210938 108.558594 176.613281 C 107.765625 176.144531 107.140625 175.789062 106.6875 175.550781 C 105.839844 175.105469 105.109375 174.617188 104.1875 174.136719 C 100.335938 172.117188 98.675781 171.105469 95.710938 169.871094 C 93.824219 169.085938 92.625 168.59375 92.113281 168.402344 C 88.339844 166.980469 84.339844 165.976562 80.113281 165.394531 C 74.6875 164.644531 69.351562 165.121094 64.191406 166.53125 C 60.628906 167.507812 57.359375 168.992188 54.378906 170.980469 C 53.835938 171.34375 53.207031 171.375 52.488281 171.082031 Z M 52.488281 171.082031 "/>
</g>
</svg>
